<svg width="576" height="693" viewBox="0 0 576 693" fill="none" xmlns="http://www.w3.org/2000/svg">
<g clip-path="url(#clip0_1_116)">
<rect width="576" height="693" fill="white"/>
<path fill-rule="evenodd" clip-rule="evenodd" d="M428.668 36.5069C475.975 36.5069 428.668 109.703 519.709 74.0577C538.545 66.6833 557.87 79.4735 563.185 91.0938C567.565 100.672 574.697 121.55 561.709 130.999C549.467 139.905 511.519 141.082 470.53 145.075C452.176 146.864 438.462 148.638 430.588 159.685C428.789 162.209 427.376 165.246 428.668 167.435C433.938 176.363 446.23 182.727 446.09 193.116C445.922 205.558 445.331 223.857 431.947 231.597C421.985 237.359 407.568 246.297 385.332 249.082C377.244 281.248 307.505 393.822 309.379 405.538C311.531 418.987 317.011 445.1 318.629 463.71C320.247 482.321 321.566 510.474 322.116 527.173C322.667 543.872 322.286 548.971 322.824 558.017C324.115 579.707 327.806 696.181 322.114 699.504C303.935 710.109 285.159 703.508 283.873 699.503C283.167 697.285 289.304 605.34 289.254 589.664C289.212 576.259 288.795 565.659 288.663 546.521C288.576 533.747 288.465 510.48 287.319 493.982C286.174 477.485 284.059 468.042 279.472 450.785C274.884 433.528 268.03 409.192 251.692 366.171C235.355 323.15 210.291 263.256 195.53 229.627C194.613 227.538 193.752 225.548 192.941 223.65C177.121 239.402 172.127 252.496 161.518 255.134C141.66 260.072 100.804 269.235 67.589 244.862C51.2469 232.871 38.9889 222.73 38.2228 209.545C37.7744 201.827 38.0643 194.237 41.3253 189.505C42.8736 187.258 44.8388 185.54 48.1847 184.142C55.7925 180.962 79.2677 182.894 109.583 179.012C144.01 174.602 45.4752 140.306 109.583 91.0938C177.945 38.6155 199.344 136.619 208.569 129.427C220.153 120.396 226.236 69.0699 262.118 70.2549C304.044 71.6396 342.557 105.766 346.498 109.4C353.802 108.842 361.928 105.395 364.581 104.897C375.407 101.934 367.436 83.8542 364.581 74.0577C361.683 64.1111 360.962 36.5069 428.668 36.5069ZM262.118 224.998C238.925 218.011 215.603 212.174 201.972 217.227C203.08 219.372 204.183 221.475 205.268 223.501C212.914 237.777 219.865 247.669 223.787 255.15C234.591 275.761 239.847 287.93 241.745 292.541C243.639 297.139 243.395 306.482 246.42 314.976C248.242 320.093 256.793 332.533 258.728 345.887C262.027 368.661 270.773 370.65 274.152 379.16C276.65 385.449 277.773 396.969 280.806 399.242C287.085 403.949 282.159 409.991 286.859 410.319C288.03 410.401 289.604 410.27 289.799 409.321C290.226 407.245 292.122 401.939 289.845 377.057C288.898 366.705 287.112 361.809 283.873 336.811C281.83 321.042 280.476 302.503 278.348 293.003C274.654 276.512 274.506 255.052 274.773 240.673C274.834 237.334 274.757 233.4 275.011 229.036C270.689 227.651 266.429 226.297 262.118 224.998ZM283.274 231.679C281.626 243.185 282.92 255.901 284.365 267.279C284.914 271.598 289.221 290.412 295.194 320.552C297.89 334.152 301.211 344.411 301.211 352.773C301.211 432.045 354.179 288.485 376.443 249.826C367.793 250.206 358.096 249.657 347.199 247.75C319.596 242.919 300.446 237.155 283.274 231.679ZM527.514 159.432C531.956 156.612 537.705 152.829 541.579 153.978C544.005 154.697 546.44 155.434 548.234 157.28C552.954 162.135 555.448 164.72 556.244 168.324C557.396 173.539 558.291 180.84 555.305 183.338C554.25 184.22 552.734 185.6 551.122 186.175C551.13 186.95 550.96 187.701 550.532 188.413C549.649 189.884 548.009 191.654 545.59 192.412C540.569 193.986 534.038 196.151 530.593 194.039C528.436 192.717 526.275 191.375 525.02 189.127C521.718 183.216 519.978 180.074 520.142 176.387C520.377 171.099 521.385 163.899 524.84 162.174C525.464 161.165 526.334 160.18 527.514 159.432ZM7.38292 141.028C11.8252 138.209 17.5749 134.427 21.4493 135.575C23.8749 136.294 26.309 137.032 28.1036 138.878C32.8224 143.732 35.3163 146.317 36.1124 149.921C37.2642 155.136 38.16 162.437 35.1739 164.935C34.1193 165.817 32.6031 167.197 30.9913 167.772C30.9992 168.547 30.8288 169.298 30.4015 170.01C29.5185 171.481 27.8794 173.251 25.4601 174.01C20.4395 175.583 13.9072 177.749 10.462 175.637C8.30495 174.314 6.1436 172.972 4.88781 170.724C1.58616 164.813 -0.154022 161.67 0.00987593 157.983C0.244949 152.696 1.25417 145.495 4.70909 143.771C5.33281 142.762 6.20335 141.777 7.38292 141.028ZM521.984 24.8243C528.666 21.6648 538.52 18.1693 544.4 21.1036C546.307 21.1802 548.457 21.5622 550.657 22.459C558.949 25.838 569.842 30.1225 572.692 35.4131C574.476 38.7258 576.247 42.0606 575.971 45.3653C575.244 54.054 574.837 58.6589 571.331 61.9336C566.259 66.6721 558.371 72.4657 552.066 70.586C549.839 69.9222 546.503 69.039 544.039 67.5225C543.106 68.0353 542.006 68.323 540.673 68.2842C537.919 68.2039 533.972 67.431 530.401 65.086C522.989 60.2194 513.201 53.9649 511.992 48.5518C511.236 45.1627 510.498 41.7566 511.853 38.8233C515.415 31.1106 517.326 27.0272 521.984 24.8243Z" fill="#332016"/>
</g>
<defs>
<clipPath id="clip0_1_116">
<rect width="576" height="693" fill="white"/>
</clipPath>
</defs>
</svg>
